<?xml version="1.0" encoding="iso-8859-1"?>
<!-- Uploaded to: SVG Repo, www.svgrepo.com, Generator: SVG Repo Mixer Tools -->
<!DOCTYPE svg PUBLIC "-//W3C//DTD SVG 1.1//EN" "http://www.w3.org/Graphics/SVG/1.1/DTD/svg11.dtd">
<svg fill="#000000" version="1.1" id="Capa_1" xmlns="http://www.w3.org/2000/svg" xmlns:xlink="http://www.w3.org/1999/xlink" 
	 width="800px" height="800px" viewBox="0 0 174.71 174.71"
	 xml:space="preserve">
<g>
	<g>
		<path d="M87.361,94.107c19.989,0,36.196-16.199,36.196-36.197C123.558,37.916,87.361,0,87.361,0S51.165,37.921,51.165,57.911
			C51.165,77.909,67.369,94.107,87.361,94.107z M73.416,54.479h8.583v-8.583c0-2.958,2.399-5.363,5.362-5.363
			c2.96,0,5.361,2.405,5.361,5.363v8.583h8.586c2.955,0,5.363,2.399,5.363,5.362c0,2.96-2.408,5.363-5.363,5.363h-8.586v8.581
			c0,2.957-2.401,5.361-5.361,5.361c-2.963,0-5.362-2.405-5.362-5.361v-8.581h-8.583c-2.96,0-5.363-2.402-5.363-5.363
			C68.053,56.884,70.455,54.479,73.416,54.479z"/>
		<path d="M61.553,148.904c0,14.249,11.549,25.806,25.808,25.806c14.251,0,25.812-11.557,25.812-25.806
			c0-14.261-25.812-41.304-25.812-41.304S61.553,134.644,61.553,148.904z M91.186,140.335v6.117h6.117
			c2.113,0,3.828,1.708,3.828,3.831c0,2.112-1.715,3.825-3.828,3.825h-6.117v6.123c0,2.106-1.713,3.819-3.824,3.819
			c-2.11,0-3.822-1.713-3.822-3.819v-6.123h-6.118c-2.112,0-3.827-1.713-3.827-3.825s1.714-3.831,3.827-3.831h6.118v-6.117
			c0-2.106,1.712-3.819,3.822-3.819C89.473,136.516,91.186,138.229,91.186,140.335z"/>
		<path d="M4.531,113.549c0,15.251,12.357,27.607,27.609,27.607c15.249,0,27.606-12.356,27.606-27.607
			c0-15.25-27.606-44.175-27.606-44.175S4.531,98.299,4.531,113.549z M36.23,104.389v6.545h6.545c2.251,0,4.09,1.834,4.09,4.089
			c0,2.261-1.839,4.087-4.09,4.087H36.23v6.545c0,2.26-1.833,4.087-4.084,4.087c-2.262,0-4.097-1.839-4.097-4.087v-6.545h-6.544
			c-2.25,0-4.09-1.834-4.09-4.087c0-2.255,1.84-4.089,4.09-4.089h6.544v-6.545c0-2.26,1.834-4.087,4.097-4.087
			C34.397,100.302,36.23,102.129,36.23,104.389z"/>
		<path d="M142.579,69.374c0,0-27.612,28.931-27.612,44.175c0,15.251,12.362,27.607,27.612,27.607c15.245,0,27.6-12.356,27.6-27.607
			C170.192,98.299,142.579,69.374,142.579,69.374z M153.216,119.109h-6.542v6.545c0,2.26-1.835,4.087-4.095,4.087
			s-4.086-1.839-4.086-4.087v-6.545h-6.546c-2.25,0-4.089-1.834-4.089-4.087c0-2.255,1.839-4.089,4.089-4.089h6.546v-6.545
			c0-2.26,1.831-4.087,4.086-4.087c2.26,0,4.095,1.827,4.095,4.087v6.545h6.542c2.255,0,4.094,1.834,4.094,4.089
			C157.31,117.283,155.471,119.109,153.216,119.109z"/>
	</g>
</g>
</svg>